<?xml version="1.0" encoding="UTF-8"?>
<svg version="1.1" xmlns="http://www.w3.org/2000/svg" width="378" height="510">
<path d="M0 0 C0 0.66 0 1.32 0 2 C4.29 2.33 8.58 2.66 13 3 C13 3.66 13 4.32 13 5 C13.94875 4.938125 14.8975 4.87625 15.875 4.8125 C22.58502292 4.79886174 28.85978187 7.54391275 35 10 C36.65919896 10.36871088 38.3247643 10.71281674 40 11 C40 11.66 40 12.32 40 13 C41.051875 13.12375 42.10375 13.2475 43.1875 13.375 C46.45958771 13.91140782 49.00536076 14.63880035 52 16 C52 16.66 52 17.32 52 18 C52.99 18.0825 53.98 18.165 55 18.25 C58.13709709 18.65235313 60.13693566 19.59343878 62.8125 21.25 C66.15942182 23.00040164 68.03746074 23.17383747 71.6875 22.1875 C77.13590439 20.21086957 82.11911299 17.33429931 87.1171875 14.42578125 C90 13 90 13 94 13 C94 12.34 94 11.68 94 11 C95.91149668 9.9901527 97.82941569 8.99245505 99.75 8 C100.81734375 7.443125 101.8846875 6.88625 102.984375 6.3125 C106 5 106 5 110 5 C110 4.34 110 3.68 110 3 C110.66 3 111.32 3 112 3 C112.33 2.34 112.66 1.68 113 1 C114.95137039 4.27811862 115.24443864 6.71237637 115.22705078 10.50292969 C115.22689972 11.60376892 115.22674866 12.70460815 115.22659302 13.83880615 C115.21627045 15.02121887 115.20594788 16.20363159 115.1953125 17.421875 C115.19106766 19.24455902 115.19106766 19.24455902 115.18673706 21.10406494 C115.17553954 24.98614335 115.15043534 28.86799129 115.125 32.75 C115.11496966 35.38150709 115.10584391 38.01301779 115.09765625 40.64453125 C115.07730299 47.09651445 115.03815244 53.54799916 115 60 C130.84 60.33 146.68 60.66 163 61 C163 101.92 163 142.84 163 185 C160.69 185 158.38 185 156 185 C154.05310927 177.40835059 152.6416256 170.10004665 152.2109375 162.265625 C152.24631101 160.03347392 152.24631101 160.03347392 151 159 C150.76518307 156.81707226 150.58636677 154.62796826 150.4375 152.4375 C150.31181641 150.64119141 150.31181641 150.64119141 150.18359375 148.80859375 C150.12300781 147.88175781 150.06242187 146.95492187 150 146 C149.34 146 148.68 146 148 146 C146.79534844 141.34201396 145.71452588 136.76350585 145 132 C144.34 132 143.68 132 143 132 C142.67 129.36 142.34 126.72 142 124 C141.34 124 140.68 124 140 124 C140 122.35 140 120.7 140 119 C139.34 119 138.68 119 138 119 C137.67 117.02 137.34 115.04 137 113 C136.34 113 135.68 113 135 113 C134.67 111.35 134.34 109.7 134 108 C133.34 108 132.68 108 132 108 C131.46375 106.989375 130.9275 105.97875 130.375 104.9375 C128.39629701 101.43399004 126.0229036 98.59644711 123.26953125 95.67578125 C121.84780249 93.79909929 121.41557361 92.29817213 121 90 C119.68 89.67 118.36 89.34 117 89 C115.40587716 92.18824568 115.89825265 95.62896662 115.9375 99.125 C115.94426758 100.25615234 115.94426758 100.25615234 115.95117188 101.41015625 C115.96296501 103.27347127 115.98090058 105.13674555 116 107 C116.33 107 116.66 107 117 107 C117 117.23 117 127.46 117 138 C116.34 138 115.68 138 115 138 C115 138.66 115 139.32 115 140 C108.9453125 140.1953125 108.9453125 140.1953125 107 140 C104.22151777 137.22151777 104.51343885 134.85079137 104 131 C103.36761375 128.98889779 102.69537167 126.99020167 102 125 C101.12122695 122.45954699 100.24630673 119.91799988 99.375 117.375 C99.14554687 116.72015625 98.91609375 116.0653125 98.6796875 115.390625 C97.53673642 112.02980455 97 109.59890195 97 106 C96.34 106 95.68 106 95 106 C94.8040625 105.37996094 94.608125 104.75992188 94.40625 104.12109375 C92.38638122 98.13984439 89.91081092 92.52758006 87 86.9375 C86.66806641 86.28257568 86.33613281 85.62765137 85.99414062 84.95288086 C84.65449536 82.44236194 83.47841941 80.36190778 81.1875 78.62890625 C74.44883384 76.69153973 67.5767345 76.83950136 60.625 76.83203125 C59.5417041 76.82870285 58.4584082 76.82537445 57.34228516 76.82194519 C55.05957461 76.81689904 52.77685674 76.81453615 50.49414062 76.81469727 C47.01159507 76.81250729 43.52936475 76.7943172 40.046875 76.77539062 C37.82291774 76.77245688 35.59895899 76.77047196 33.375 76.76953125 C32.33939941 76.76234573 31.30379883 76.75516022 30.23681641 76.74775696 C24.71187991 76.76513902 20.24408198 77.29929636 15 79 C13.68 79 12.36 79 11 79 C11 79.66 11 80.32 11 81 C8.525 81.495 8.525 81.495 6 82 C5.67 83.65 5.34 85.3 5 87 C4.34 87 3.68 87 3 87 C3.0309375 88.6396875 3.0309375 88.6396875 3.0625 90.3125 C3 94 3 94 2 97 C1.8893886 98.39552285 1.82989831 99.7954575 1.80381775 101.19511414 C1.78561478 102.04906769 1.7674118 102.90302124 1.74865723 103.78285217 C1.73355103 104.71649094 1.71844482 105.6501297 1.70288086 106.61206055 C1.67340111 108.09038361 1.67340111 108.09038361 1.64332581 109.59857178 C1.57937502 112.86121888 1.52208905 116.12394767 1.46484375 119.38671875 C1.42184197 121.64688385 1.37842545 123.90704108 1.33460999 126.16719055 C1.22032683 132.11997381 1.11169092 138.07284737 1.00421143 144.02575684 C0.89357312 150.09861571 0.77762092 156.17137283 0.66210938 162.24414062 C0.43619103 174.16266661 0.21623559 186.08129469 0 198 C-2.99551614 196.58746868 -5.99002486 195.17281368 -8.984375 193.7578125 C-9.82145996 193.36311768 -10.65854492 192.96842285 -11.52099609 192.56176758 C-17.49121883 189.73879611 -23.4079795 186.82352483 -29.2975769 183.83654785 C-32.58451711 182.17017253 -35.88962423 180.58205758 -39.2578125 179.0859375 C-39.94842773 178.77672363 -40.63904297 178.46750977 -41.35058594 178.14892578 C-42.6639983 177.56571494 -43.98218277 176.99309136 -45.30566406 176.43310547 C-47.83368488 175.30776872 -49.72241861 174.3436722 -51.4765625 172.171875 C-52.18081458 169.24975442 -51.49596109 166.96078489 -51 164 C-50.89103161 161.90813061 -50.82509556 159.81372304 -50.79467773 157.71923828 C-50.77473251 156.4984256 -50.75478729 155.27761292 -50.73423767 154.01980591 C-50.71752518 152.71647308 -50.70081268 151.41314026 -50.68359375 150.0703125 C-50.66299757 148.71124681 -50.64200045 147.35218714 -50.62062073 145.99313354 C-50.56567487 142.43238226 -50.51614553 138.87157583 -50.46777344 135.31072998 C-50.41735647 131.67064562 -50.36177629 128.03064041 -50.30664062 124.390625 C-50.19939577 117.26048546 -50.09787739 110.13027478 -50 103 C-50.66 103 -51.32 103 -52 103 C-52.07347656 101.77023438 -52.07347656 101.77023438 -52.1484375 100.515625 C-52.22320312 99.43796875 -52.29796875 98.3603125 -52.375 97.25 C-52.44460937 96.18265625 -52.51421875 95.1153125 -52.5859375 94.015625 C-52.97824438 91.15844658 -53.66412899 89.49797019 -55 87 C-55 86.01 -55 85.02 -55 84 C-55.66 84 -56.32 84 -57 84 C-57.33 83.34 -57.66 82.68 -58 82 C-58.99 81.67 -59.98 81.34 -61 81 C-61 80.34 -61 79.68 -61 79 C-61.61488281 78.93941406 -62.22976562 78.87882812 -62.86328125 78.81640625 C-64.07564453 78.69072266 -64.07564453 78.69072266 -65.3125 78.5625 C-66.51326172 78.44068359 -66.51326172 78.44068359 -67.73828125 78.31640625 C-70 78 -70 78 -73 77 C-74.76408128 76.91200529 -76.53133766 76.88235743 -78.29760742 76.88647461 C-79.37850143 76.88655014 -80.45939545 76.88662567 -81.57304382 76.88670349 C-83.32159416 76.89444542 -83.32159416 76.89444542 -85.10546875 76.90234375 C-86.29981033 76.9037587 -87.49415192 76.90517365 -88.72468567 76.90663147 C-92.54564908 76.9122365 -96.36655425 76.92478989 -100.1875 76.9375 C-102.77538978 76.94251435 -105.36328048 76.94707737 -107.95117188 76.95117188 C-114.30080118 76.96220757 -120.65039643 76.97895064 -127 77 C-127.33 77.66 -127.66 78.32 -128 79 C-128.66 79 -129.32 79 -130 79 C-130 87.58 -130 96.16 -130 105 C-129.34 105 -128.68 105 -128 105 C-127.814375 106.60875 -127.814375 106.60875 -127.625 108.25 C-127.08909822 111.4654107 -126.44598512 113.20442877 -125 116 C-125 117.32 -125 118.64 -125 120 C-124.34 120 -123.68 120 -123 120 C-122.67 121.65 -122.34 123.3 -122 125 C-121.34 125 -120.68 125 -120 125 C-117.95830515 127.90548882 -117 129.40142046 -117 133 C-116.34 133 -115.68 133 -115 133 C-113.34375 134.828125 -113.34375 134.828125 -111.5 137.25 C-110.8915625 138.03890625 -110.283125 138.8278125 -109.65625 139.640625 C-108 142 -108 142 -107.03125 144.171875 C-105.69984398 146.53209476 -104.45037623 146.90702643 -102 148 C-100.39028993 149.12999515 -98.80736832 150.2988924 -97.25 151.5 C-96.45078125 152.1084375 -95.6515625 152.716875 -94.828125 153.34375 C-93.92320313 154.16359375 -93.92320313 154.16359375 -93 155 C-93 155.66 -93 156.32 -93 157 C-92.21625 157.309375 -91.4325 157.61875 -90.625 157.9375 C-88 159 -88 159 -86 160 C-86 160.66 -86 161.32 -86 162 C-84.68 162.33 -83.36 162.66 -82 163 C-82 163.66 -82 164.32 -82 165 C-80.35 165.33 -78.7 165.66 -77 166 C-77 166.66 -77 167.32 -77 168 C-76.41734375 168.12834229 -75.8346875 168.25668457 -75.234375 168.38891602 C-73.05492878 168.98497741 -71.25990722 169.75551979 -69.25 170.77734375 C-68.5590625 171.12603516 -67.868125 171.47472656 -67.15625 171.83398438 C-66.4446875 172.19814453 -65.733125 172.56230469 -65 172.9375 C-64.2884375 173.29779297 -63.576875 173.65808594 -62.84375 174.02929688 C-61.51469099 174.70250494 -60.18646421 175.37736053 -58.859375 176.05444336 C-56.91073068 177.04539654 -54.95630963 178.02427975 -53 179 C-53 179.66 -53 180.32 -53 181 C-52.46890625 181.11214844 -51.9378125 181.22429687 -51.390625 181.33984375 C-48.38949642 182.16858677 -45.61591837 183.34759982 -42.75 184.5625 C-41.67234375 185.01753906 -40.5946875 185.47257813 -39.484375 185.94140625 C-38.66453125 186.29074219 -37.8446875 186.64007813 -37 187 C-37 187.66 -37 188.32 -37 189 C-36.154375 189.0825 -35.30875 189.165 -34.4375 189.25 C-31.11272671 189.97540508 -28.80824776 191.12663219 -25.92578125 192.890625 C-23.79723972 194.11680308 -21.63020026 195.09010851 -19.375 196.0625 C-16.9202428 197.12222655 -14.72653691 198.16674578 -12.4375 199.5625 C-9.67902225 201.18929457 -6.90357822 202.17585391 -3.8984375 203.25390625 C-2 204 -2 204 0.375 205.4375 C3.53619138 207.31916154 6.79539911 208.55265507 10.21875 209.8828125 C14.88592538 211.75754868 19.43831256 213.88393206 24 216 C24 216.66 24 217.32 24 218 C25.98 218.33 27.96 218.66 30 219 C30 219.66 30 220.32 30 221 C31.36125 221.185625 31.36125 221.185625 32.75 221.375 C35.58970323 221.92109677 37.52590591 222.57263803 40 224 C40 224.66 40 225.32 40 226 C41.98 226.33 43.96 226.66 46 227 C46 227.66 46 228.32 46 229 C46.8353125 229.185625 46.8353125 229.185625 47.6875 229.375 C50.22114364 230.05976855 52.57921032 230.99133763 55 232 C55 232.66 55 233.32 55 234 C56.32 234.33 57.64 234.66 59 235 C59 235.66 59 236.32 59 237 C59.86625 237.185625 59.86625 237.185625 60.75 237.375 C63.02335767 238.00648824 64.9253529 238.88858191 67 240 C67 240.66 67 241.32 67 242 C68.65 242.33 70.3 242.66 72 243 C72 243.66 72 244.32 72 245 C72.928125 245.4640625 72.928125 245.4640625 73.875 245.9375 C75.25 246.625 76.625 247.3125 78 248 C78 248.66 78 249.32 78 250 C79.32 250.33 80.64 250.66 82 251 C82 251.66 82 252.32 82 253 C82.8353125 253.37125 82.8353125 253.37125 83.6875 253.75 C86.42410913 255.22924818 88.67650869 256.93467439 91 259 C91 259.66 91 260.32 91 261 C91.66 261 92.32 261 93 261 C94.5078125 262.6796875 94.5078125 262.6796875 96.125 264.875 C96.66382813 265.59429687 97.20265625 266.31359375 97.7578125 267.0546875 C99 269 99 269 99 271 C99.66 271 100.32 271 101 271 C101.33 272.32 101.66 273.64 102 275 C102.66 275 103.32 275 104 275 C106.04169485 277.90548882 107 279.40142046 107 283 C107.66 283 108.32 283 109 283 C109.33 284.65 109.66 286.3 110 288 C110.66 288 111.32 288 112 288 C112.50757862 289.41396902 113.00574925 290.83131729 113.5 292.25 C113.7784375 293.03890625 114.056875 293.8278125 114.34375 294.640625 C115 297 115 297 115 301 C115.66 301 116.32 301 117 301 C117.13277344 301.85464844 117.26554687 302.70929688 117.40234375 303.58984375 C117.57894531 304.69457031 117.75554687 305.79929687 117.9375 306.9375 C118.11152344 308.03964844 118.28554688 309.14179688 118.46484375 310.27734375 C118.71845136 312.90426929 118.71845136 312.90426929 120 314 C121.93042725 328.08496923 121.54729627 342.90855184 120 357 C119.34 357 118.68 357 118 357 C118.0309375 358.5778125 118.0309375 358.5778125 118.0625 360.1875 C118.01103198 363.32704904 117.73482813 365.96883396 117 369 C116.34 369 115.68 369 115 369 C114.88785156 369.67417969 114.77570313 370.34835937 114.66015625 371.04296875 C113.87079499 374.57874672 112.68500151 377.91943566 111.4375 381.3125 C111.20353516 381.95767578 110.96957031 382.60285156 110.72851562 383.26757812 C110.15552993 384.84621219 109.57820536 386.42327026 109 388 C108.34 388 107.68 388 107 388 C106.87625 388.5775 106.7525 389.155 106.625 389.75 C105.99351176 392.02335767 105.11141809 393.9253529 104 396 C103.34 396 102.68 396 102 396 C101.7525 396.70125 101.505 397.4025 101.25 398.125 C99.82819762 401.39514548 98.12753712 404.141122 96 407 C95.34 407 94.68 407 94 407 C93.67 407.99 93.34 408.98 93 410 C92.34 410 91.68 410 91 410 C90.67 410.99 90.34 411.98 90 413 C89.34 413 88.68 413 88 413 C88 413.66 88 414.32 88 415 C87.34 415 86.68 415 86 415 C85.67 415.99 85.34 416.98 85 418 C84.34 418 83.68 418 83 418 C83 418.66 83 419.32 83 420 C82.34 420 81.68 420 81 420 C80.67 420.99 80.34 421.98 80 423 C77.56640625 425.04296875 77.56640625 425.04296875 74.5625 427.1875 C73.57378906 427.90292969 72.58507812 428.61835938 71.56640625 429.35546875 C69 431 69 431 67 431 C67 431.66 67 432.32 67 433 C65.35 433.33 63.7 433.66 62 434 C62 434.66 62 435.32 62 436 C56.375 439 56.375 439 53 439 C53 439.66 53 440.32 53 441 C51.35 441.33 49.7 441.66 48 442 C48 442.66 48 443.32 48 444 C46.75336669 444.50833591 45.50250613 445.00631145 44.25 445.5 C43.55390625 445.7784375 42.8578125 446.056875 42.140625 446.34375 C40 447 40 447 36 447 C36 447.66 36 448.32 36 449 C32.05677987 450.59112391 28.72725188 451.90909352 24.5 452.4375 C20.73155212 453.04314341 18.29757767 454.29314835 14.9921875 456.09375 C13 457 13 457 9.125 457.5 C8.09375 457.665 7.0625 457.83 6 458 C4.48705712 459.93597032 4.48705712 459.93597032 4 462 C3.67 461.34 3.34 460.68 3 460 C0.48961607 467.53115179 1.45308302 475.63833082 4.64453125 482.8046875 C6.50387342 485.81607165 8.75862829 487.7835465 11.609375 489.84375 C12.06828125 490.2253125 12.5271875 490.606875 13 491 C13 491.66 13 492.32 13 493 C13.804375 493.144375 14.60875 493.28875 15.4375 493.4375 C18 494 18 494 19 495 C20.03125 495.144375 21.0625 495.28875 22.125 495.4375 C26 496 26 496 28.99609375 496.99609375 C34.19836047 498.52474488 39.55304946 498.46456944 44.9375 498.625 C46.00291016 498.66367187 47.06832031 498.70234375 48.16601562 498.7421875 C50.7770778 498.83585789 53.38851435 498.91899065 56 499 C56 502.3 56 505.6 56 509 C2.54 509 -50.92 509 -106 509 C-106 500 -106 500 -105 499 C-102.9291528 498.8415735 -100.85321971 498.74875578 -98.77734375 498.68359375 C-97.51728516 498.64169922 -96.25722656 498.59980469 -94.95898438 498.55664062 C-93.61849264 498.51682404 -92.2779978 498.47711186 -90.9375 498.4375 C-89.59308477 498.39431958 -88.2486834 498.35070544 -86.90429688 498.30664062 C-83.6029766 498.20014642 -80.30157764 498.0981354 -77 498 C-77 497.34 -77 496.68 -77 496 C-67.58997722 493.88838269 -67.58997722 493.88838269 -63 493 C-62.67 492.01 -62.34 491.02 -62 490 C-61.34 490 -60.68 490 -60 490 C-60 489.34 -60 488.68 -60 488 C-58.625 486.375 -58.625 486.375 -57 485 C-56.34 485 -55.68 485 -55 485 C-53.02656348 479.9781656 -52.5913726 475.44415968 -52.375 470.125 C-52.31699219 468.949375 -52.31699219 468.949375 -52.2578125 467.75 C-52.16433378 465.83368633 -52.08111505 463.91687681 -52 462 C-56.66340332 461.40199893 -61.31561686 460.84738352 -66 460.4375 C-67.423125 460.31181641 -67.423125 460.31181641 -68.875 460.18359375 C-69.57625 460.12300781 -70.2775 460.06242187 -71 460 C-71 459.34 -71 458.68 -71 458 C-71.95261719 458.01160156 -72.90523437 458.02320313 -73.88671875 458.03515625 C-75.14097656 458.04417969 -76.39523438 458.05320312 -77.6875 458.0625 C-78.92886719 458.07410156 -80.17023438 458.08570313 -81.44921875 458.09765625 C-84.46235454 458.01478673 -87.08275339 457.70839449 -90 457 C-90 456.34 -90 455.68 -90 455 C-91.11375 454.9175 -92.2275 454.835 -93.375 454.75 C-97.84992963 454.20758429 -101.6744592 452.69944599 -105.80078125 450.9375 C-108.10682833 449.91932329 -108.10682833 449.91932329 -111 449 C-111 448.34 -111 447.68 -111 447 C-111.53625 446.87625 -112.0725 446.7525 -112.625 446.625 C-115.4638286 445.87793984 -118.22223202 444.94696636 -121 444 C-121 443.34 -121 442.68 -121 442 C-123.65228812 440.92474806 -126.28368454 439.90543849 -129 439 C-129.33 438.34 -129.66 437.68 -130 437 C-130.99 436.67 -131.98 436.34 -133 436 C-133 435.34 -133 434.68 -133 434 C-134.32 433.67 -135.64 433.34 -137 433 C-137 432.34 -137 431.68 -137 431 C-137.556875 430.9175 -138.11375 430.835 -138.6875 430.75 C-141.69994803 429.77298983 -143.59382333 428.02625404 -146 426 C-146.66 425.67 -147.32 425.34 -148 425 C-148 424.34 -148 423.68 -148 423 C-148.99 422.67 -149.98 422.34 -151 422 C-151 421.34 -151 420.68 -151 420 C-151.66 420 -152.32 420 -153 420 C-153 419.34 -153 418.68 -153 418 C-153.99 417.67 -154.98 417.34 -156 417 C-159.67439019 413.44043451 -162.39765966 409.37666329 -165 405 C-165.598125 404.4225 -166.19625 403.845 -166.8125 403.25 C-170.56647518 399.38876839 -175 394.53732713 -175 389 C-175.66 389 -176.32 389 -177 389 C-177.32613281 388.33613281 -177.65226562 387.67226563 -177.98828125 386.98828125 C-180.65995415 381.53327433 -180.65995415 381.53327433 -183.75 376.3125 C-185.39468267 373.26983706 -185.66530371 370.41390221 -186 367 C-186.66 367 -187.32 367 -188 367 C-188 365.35 -188 363.7 -188 362 C-188.66 362 -189.32 362 -190 362 C-190.12117188 361.34773438 -190.24234375 360.69546875 -190.3671875 360.0234375 C-191.10010678 356.20098156 -191.83015183 352.50954452 -193.0625 348.8125 C-194.14457259 345.56628222 -194.53569684 342.38278014 -195 339 C-195.33 338.67 -195.66 338.34 -196 338 C-197.91844816 320.66291289 -197.91844816 302.33708711 -196 285 C-195.67 284.67 -195.34 284.34 -195 284 C-194.60430892 281.98688551 -194.25747809 279.96402792 -193.9375 277.9375 C-193.67259766 276.28041016 -193.67259766 276.28041016 -193.40234375 274.58984375 C-193.26957031 273.73519531 -193.13679688 272.88054687 -193 272 C-192.34 272 -191.68 272 -191 272 C-191.0928125 270.5459375 -191.0928125 270.5459375 -191.1875 269.0625 C-191.21625881 264.38440054 -189.64771207 260.32524418 -188 256 C-187.34 256 -186.68 256 -186 256 C-185.505 253.03 -185.505 253.03 -185 250 C-184.34 250 -183.68 250 -183 250 C-182.814375 248.63875 -182.814375 248.63875 -182.625 247.25 C-182.07890323 244.41029677 -181.42736197 242.47409409 -180 240 C-179.34 240 -178.68 240 -178 240 C-177.505 237.03 -177.505 237.03 -177 234 C-176.34 234 -175.68 234 -175 234 C-174.67 232.35 -174.34 230.7 -174 229 C-173.34 229 -172.68 229 -172 229 C-171.87625 228.4225 -171.7525 227.845 -171.625 227.25 C-170.99351176 224.97664233 -170.11141809 223.0746471 -169 221 C-168.34 221 -167.68 221 -167 221 C-166.5359375 220.071875 -166.5359375 220.071875 -166.0625 219.125 C-165.375 217.75 -164.6875 216.375 -164 215 C-163.34 215 -162.68 215 -162 215 C-161.6596875 214.195625 -161.6596875 214.195625 -161.3125 213.375 C-159.54429911 210.17539839 -157.46329797 207.70962777 -155 205 C-154.34 205 -153.68 205 -153 205 C-152.7525 204.4225 -152.505 203.845 -152.25 203.25 C-150.77842934 200.6011728 -149.37032324 198.89625859 -147 197 C-144.25 196.75 -144.25 196.75 -142 197 C-141.67 197.99 -141.34 198.98 -141 200 C-140.34 200 -139.68 200 -139 200 C-139 201.32 -139 202.64 -139 204 C-139.66 204 -140.32 204 -141 204 C-141 204.99 -141 205.98 -141 207 C-143.58958203 209.93952555 -145.25366514 211.75122171 -149 213 C-149.69040574 214.65697379 -150.3530635 216.3255761 -151 218 C-153 220.8125 -153 220.8125 -155 223 C-155.66 223 -156.32 223 -157 223 C-157.226875 223.680625 -157.45375 224.36125 -157.6875 225.0625 C-159.06966482 228.15591651 -160.76487943 230.58531539 -162.76171875 233.30078125 C-165.24891668 236.7138131 -167.2248512 239.81419651 -168 244 C-168.66 244 -169.32 244 -170 244 C-170.33 245.65 -170.66 247.3 -171 249 C-171.66 249 -172.32 249 -173 249 C-173.12375 249.86625 -173.2475 250.7325 -173.375 251.625 C-173.98058121 254.89513853 -174.88306035 257.87256899 -176 261 C-176.66 261 -177.32 261 -178 261 C-178.33 263.64 -178.66 266.28 -179 269 C-179.66 269 -180.32 269 -181 269 C-180.95875 269.845625 -180.9175 270.69125 -180.875 271.5625 C-181.01258877 275.34619116 -181.9532078 278.36701531 -183 282 C-183.43495433 284.99210343 -183.74046151 287.98798752 -184 291 C-184.66 291 -185.32 291 -186 291 C-185.88206288 296.39363237 -185.75783819 301.78706847 -185.62768555 307.18041992 C-185.5842718 309.01664247 -185.54260161 310.85290708 -185.50268555 312.68920898 C-185.44513831 315.32288311 -185.38140002 317.95634421 -185.31640625 320.58984375 C-185.29969376 321.41588608 -185.28298126 322.24192841 -185.26576233 323.09300232 C-185.52192567 326.85476753 -185.52192567 326.85476753 -184 330 C-183.620762 332.37616309 -183.29155917 334.73785932 -183 337.125 C-182.37075755 342.09011618 -181.72036573 347.04748561 -181 352 C-180.34 352 -179.68 352 -179 352 C-178.67 354.97 -178.34 357.94 -178 361 C-177.34 361 -176.68 361 -176 361 C-175.73445313 361.75925781 -175.46890625 362.51851563 -175.1953125 363.30078125 C-174.84210938 364.29464844 -174.48890625 365.28851563 -174.125 366.3125 C-173.77695313 367.29863281 -173.42890625 368.28476562 -173.0703125 369.30078125 C-172.04694076 372.15594377 -172.04694076 372.15594377 -170 375 C-170 375.99 -170 376.98 -170 378 C-169.34 378 -168.68 378 -168 378 C-165 383.75 -165 383.75 -165 386 C-164.34 386 -163.68 386 -163 386 C-162.46761719 387.00546875 -161.93523437 388.0109375 -161.38671875 389.046875 C-158.99904143 393.22662568 -156.01655947 396.67876846 -152.8125 400.25 C-151.73154019 401.4598582 -150.65453286 402.67326258 -149.58203125 403.890625 C-149.10999268 404.41688477 -148.6379541 404.94314453 -148.15161133 405.48535156 C-147 407 -147 407 -146 410 C-145.01 410.33 -144.02 410.66 -143 411 C-143 411.66 -143 412.32 -143 413 C-142.46375 413.2475 -141.9275 413.495 -141.375 413.75 C-138.4176018 415.30652537 -135.70275949 417.03435673 -133 419 C-133 419.66 -133 420.32 -133 421 C-132.2265625 421.37125 -132.2265625 421.37125 -131.4375 421.75 C-128.22815849 423.39581616 -125.12414336 425.1976096 -122 427 C-122 427.66 -122 428.32 -122 429 C-121.44828125 429.11214844 -120.8965625 429.22429687 -120.328125 429.33984375 C-117.59934789 430.11360773 -115.27227057 431.26817694 -112.75 432.5625 C-111.85796875 433.01753906 -110.9659375 433.47257812 -110.046875 433.94140625 C-109.37140625 434.29074219 -108.6959375 434.64007813 -108 435 C-108 435.66 -108 436.32 -108 437 C-105.69 437.33 -103.38 437.66 -101 438 C-101 438.66 -101 439.32 -101 440 C-99.35 440 -97.7 440 -96 440 C-96 440.66 -96 441.32 -96 442 C-94.845 442.103125 -93.69 442.20625 -92.5 442.3125 C-88.70388356 442.77609652 -85.47138278 443.80152304 -81.95703125 445.28125 C-77.17084834 447.03904971 -72.23599559 447.26780313 -67.1875 447.5625 C-66.49462891 447.60568359 -65.80175781 447.64886719 -65.08789062 447.69335938 C-63.39211314 447.79861453 -61.69607948 447.89972863 -60 448 C-59.67 447.34 -59.34 446.68 -59 446 C-56.67843403 445.59270772 -54.3431213 445.25561323 -52 445 C-52.00222061 444.42341141 -52.00444122 443.84682281 -52.00672913 443.25276184 C-52.09960897 417.89191348 -52.14914518 392.54172491 -51.5 367.1875 C-50.58735728 333.83897397 -50.58735728 333.83897397 -51.6418457 300.51049805 C-52.35982309 288.36697779 -52.08228929 276.15855922 -52 264 C-42.30657247 261.40089147 -33.12093752 267.00121381 -24.49609375 270.96875 C-19.67392799 273.17878141 -14.77800711 275.0694339 -9.796875 276.89453125 C-2.03926097 279.96073903 -2.03926097 279.96073903 0 282 C1.17616199 289.81156291 1.16527001 297.59939349 1.18945312 305.48413086 C1.19740947 306.93047316 1.2057985 308.37681314 1.21458435 309.82315063 C1.23253994 312.92017367 1.2475904 316.01719194 1.26036072 319.11424065 C1.28068372 324.00926385 1.30831691 328.90422945 1.33703613 333.79920959 C1.40202724 345.06292159 1.45772914 356.32667575 1.51302338 367.59043884 C1.56386922 377.93698802 1.6166819 388.28351589 1.67754889 398.63001162 C1.70591429 403.49915983 1.72950204 408.36830098 1.74947357 413.23749053 C1.76283241 416.25748505 1.7802445 419.27744614 1.79878426 422.29741287 C1.80655707 423.70110927 1.81261928 425.1048163 1.81687737 426.50852776 C1.8229006 428.41882632 1.83551687 430.32910076 1.84851074 432.23936462 C1.85366447 433.30986022 1.85881821 434.38035582 1.86412811 435.48329067 C1.83223323 437.99642083 1.83223323 437.99642083 3 440 C3.66 440 4.32 440 5 440 C5.33 440.66 5.66 441.32 6 442 C11.79897082 441.73152913 16.14861322 440.80134106 21.17578125 437.83984375 C23 437 23 437 27 437 C27 436.34 27 435.68 27 435 C28.98 434.67 30.96 434.34 33 434 C33 433.34 33 432.68 33 432 C35.90548882 429.95830515 37.40142046 429 41 429 C41.33 428.01 41.66 427.02 42 426 C42.66 426 43.32 426 44 426 C44 425.34 44 424.68 44 424 C44.70125 423.608125 45.4025 423.21625 46.125 422.8125 C49.39432266 420.75140528 51.30400321 418.43843391 53.66796875 415.42578125 C54.32732422 414.72001953 54.32732422 414.72001953 55 414 C55.66 414 56.32 414 57 414 C57.4640625 413.071875 57.4640625 413.071875 57.9375 412.125 C58.625 410.75 59.3125 409.375 60 408 C60.66 408 61.32 408 62 408 C62.33 406.35 62.66 404.7 63 403 C63.66 403 64.32 403 65 403 C65.0825 402.34 65.165 401.68 65.25 401 C66.07438751 397.70244998 67.38001932 395.05137041 68.96484375 392.0625 C73.8326664 382.36359298 74.17792149 372.02726136 74.1875 361.375 C74.1887085 360.0590686 74.1887085 360.0590686 74.18994141 358.71655273 C74.14693461 353.78144159 74.14693461 353.78144159 73 349 C72.87218214 346.32605036 72.95608129 343.67904143 73 341 C72.34 341 71.68 341 71 341 C70.67 338.03 70.34 335.06 70 332 C69.34 332 68.68 332 68 332 C65.95830515 329.09451118 65 327.59857954 65 324 C64.34 324 63.68 324 63 324 C62.67 322.35 62.34 320.7 62 319 C61.34 319 60.68 319 60 319 C60 318.01 60 317.02 60 316 C59.01 315.67 58.02 315.34 57 315 C57 314.34 57 313.68 57 313 C56.34 313 55.68 313 55 313 C53.375 311.625 53.375 311.625 52 310 C52 309.34 52 308.68 52 308 C51.34 308 50.68 308 50 308 C48.375 306.625 48.375 306.625 47 305 C47 304.34 47 303.68 47 303 C46.071875 302.5359375 46.071875 302.5359375 45.125 302.0625 C43.75 301.375 42.375 300.6875 41 300 C41 299.34 41 298.68 41 298 C40.29875 297.75121094 39.5975 297.50242187 38.875 297.24609375 C35.62372477 295.83691332 32.92243978 294.06422214 30 292.0625 C23.0034781 286.94666815 23.0034781 286.94666815 15 284 C15 283.34 15 282.68 15 282 C13.35 281.67 11.7 281.34 10 281 C10 280.34 10 279.68 10 279 C8.02 278.67 6.04 278.34 4 278 C4 277.34 4 276.68 4 276 C3.32066406 275.9071875 2.64132813 275.814375 1.94140625 275.71875 C-1.69167179 274.83098591 -4.7752703 273.22674209 -8.0625 271.5 C-21.27163655 264.74342428 -34.71579124 258.15171108 -49 254 C-49 253.34 -49 252.68 -49 252 C-49.99 252 -50.98 252 -52 252 C-52 251.34 -52 250.68 -52 250 C-53.051875 249.9175 -54.10375 249.835 -55.1875 249.75 C-59.42646601 248.91610505 -60.77417947 247.75374923 -64 245 C-66.615225 243.5552596 -69.29288326 242.26287332 -72 241 C-72 240.34 -72 239.68 -72 239 C-72.7425 238.87625 -73.485 238.7525 -74.25 238.625 C-76.80141485 238.04513299 -78.7267573 237.26291261 -81 236 C-81 235.34 -81 234.68 -81 234 C-81.72574219 233.88785156 -82.45148438 233.77570313 -83.19921875 233.66015625 C-86.12563993 232.97038613 -88.22287809 231.94489186 -90.8125 230.4375 C-91.60269531 229.98246094 -92.39289063 229.52742187 -93.20703125 229.05859375 C-93.79871094 228.70925781 -94.39039062 228.35992187 -95 228 C-95 227.34 -95 226.68 -95 226 C-96.65 225.67 -98.3 225.34 -100 225 C-100 224.34 -100 223.68 -100 223 C-100.99 223 -101.98 223 -103 223 C-103 222.34 -103 221.68 -103 221 C-103.763125 220.71125 -104.52625 220.4225 -105.3125 220.125 C-108 219 -108 219 -111 217 C-111 216.34 -111 215.68 -111 215 C-112.0828125 214.62875 -112.0828125 214.62875 -113.1875 214.25 C-116.27606582 212.87730408 -118.51011418 211.27646704 -121 209 C-121 208.34 -121 207.68 -121 207 C-121.61875 206.7525 -122.2375 206.505 -122.875 206.25 C-125.35068687 204.79371361 -125.95125002 203.62187494 -127 201 C-127.66 201 -128.32 201 -129 201 C-130.625 199.625 -130.625 199.625 -132 198 C-132 197.34 -132 196.68 -132 196 C-132.66 196 -133.32 196 -134 196 C-138 190.58823529 -138 190.58823529 -138 188 C-138.66 188 -139.32 188 -140 188 C-142.04169485 185.09451118 -143 183.59857954 -143 180 C-143.66 180 -144.32 180 -145 180 C-145.26554687 179.32453125 -145.53109375 178.6490625 -145.8046875 177.953125 C-146.15789062 177.06109375 -146.51109375 176.1690625 -146.875 175.25 C-147.22304687 174.36828125 -147.57109375 173.4865625 -147.9296875 172.578125 C-148.94021304 170.03811093 -148.94021304 170.03811093 -150.125 167.84375 C-151.24613997 165.48134792 -151.14339144 163.58104594 -151 161 C-151.66 161 -152.32 161 -153 161 C-153.84681133 155.91913204 -154.09038099 151.15171623 -154 146 C-154.66 146 -155.32 146 -156 146 C-156 134.78 -156 123.56 -156 112 C-155.34 112 -154.68 112 -154 112 C-153.96261719 110.94941406 -153.92523438 109.89882812 -153.88671875 108.81640625 C-153.54571346 101.03629636 -152.91672873 94.29182183 -150 87 C-149.22382241 85.00069656 -149.22382241 85.00069656 -149 83 C-149.66 82.01 -150.32 81.02 -151 80 C-150 79 -150 79 -147.4375 78.9375 C-146.633125 78.958125 -145.82875 78.97875 -145 79 C-145 78.34 -145 77.68 -145 77 C-149.95 77.99 -149.95 77.99 -155 79 C-155 79.66 -155 80.32 -155 81 C-158.465 81.495 -158.465 81.495 -162 82 C-162 82.66 -162 83.32 -162 84 C-162.99 84 -163.98 84 -165 84 C-165 84.66 -165 85.32 -165 86 C-166.39966448 86.88759211 -167.79993368 87.77424403 -169.203125 88.65625 C-173.08749011 91.56107956 -176.82376365 95.64752729 -179 100 C-179.66 100 -180.32 100 -181 100 C-182.07525194 102.65228812 -183.09456151 105.28368454 -184 108 C-184.66 108 -185.32 108 -186 108 C-186.33 109.65 -186.66 111.3 -187 113 C-187.66 113 -188.32 113 -189 113 C-189.12375 113.886875 -189.2475 114.77375 -189.375 115.6875 C-189.94412736 118.70387502 -190.76614436 121.20326054 -192 124 C-192.66 124 -193.32 124 -194 124 C-194.103125 125.134375 -194.20625 126.26875 -194.3125 127.4375 C-194.80778166 131.44220598 -195.89067247 135.0185164 -197.234375 138.8125 C-198.29424863 141.84071037 -199.1448957 144.90846909 -200 148 C-200.66 148 -201.32 148 -202 148 C-202.495 154.435 -202.495 154.435 -203 161 C-203.66 161 -204.32 161 -205 161 C-204.96519531 161.64324219 -204.93039063 162.28648437 -204.89453125 162.94921875 C-204.66289474 170.6814661 -206.00966059 177.54807448 -208 185 C-210.31 185 -212.62 185 -215 185 C-215 144.08 -215 103.16 -215 61 C-179.855 60.505 -179.855 60.505 -144 60 C-144 59.67 -144 59.34 -144 59 C-139.545 58.505 -139.545 58.505 -135 58 C-134.566875 56.783125 -134.13375 55.56625 -133.6875 54.3125 C-132.42832703 50.96856424 -131.09900821 47.92035925 -129 45 C-128.34 45 -127.68 45 -127 45 C-127 44.34 -127 43.68 -127 43 C-122.69767442 38.23255814 -122.69767442 38.23255814 -119 37 C-118.505 36.01 -118.505 36.01 -118 35 C-117 33 -117 33 -114 32 C-113.67 31.01 -113.34 30.02 -113 29 C-112.34 29 -111.68 29 -111 29 C-110.505 27.515 -110.505 27.515 -110 26 C-109.34 26 -108.68 26 -108 26 C-108 25.34 -108 24.68 -108 24 C-103.61538462 21 -103.61538462 21 -101 21 C-101 20.34 -101 19.68 -101 19 C-99.60922699 18.17886823 -98.21211107 17.36847505 -96.8125 16.5625 C-96.03519531 16.11003906 -95.25789063 15.65757813 -94.45703125 15.19140625 C-91.95068023 13.97608501 -89.74209635 13.42373425 -87 13 C-87 12.34 -87 11.68 -87 11 C-85.73542969 10.47599609 -85.73542969 10.47599609 -84.4453125 9.94140625 C-83.34960938 9.48636719 -82.25390625 9.03132812 -81.125 8.5625 C-79.48917969 7.88380859 -79.48917969 7.88380859 -77.8203125 7.19140625 C-76.19441376 6.50456537 -74.57868226 5.78934113 -73 5 C-71.00039988 4.960008 -68.99952758 4.95653201 -67 5 C-67 4.34 -67 3.68 -67 3 C-66.21753906 2.86722656 -65.43507812 2.73445312 -64.62890625 2.59765625 C-63.61699219 2.42105469 -62.60507813 2.24445313 -61.5625 2.0625 C-60.55316406 1.88847656 -59.54382813 1.71445312 -58.50390625 1.53515625 C-56.0712562 1.25248903 -56.0712562 1.25248903 -55 0 C-52.14010924 -0.24513349 -49.3032128 -0.42828622 -46.4375 -0.5625 C-45.14573853 -0.6251001 -45.14573853 -0.6251001 -43.82788086 -0.68896484 C-29.16597515 -1.35129856 -14.64258999 -0.84014861 0 0 Z M-51 16 C-52.9748281 16.30084108 -54.95527882 16.56501147 -56.9375 16.8125 C-63.1482357 17.72783768 -68.2999772 19.45847125 -74 22 C-75.78916444 22.71463008 -77.58082467 23.42304527 -79.375 24.125 C-82.33029105 25.28978898 -85.17658042 26.54316707 -88 28 C-88 28.66 -88 29.32 -88 30 C-89.65 30.33 -91.3 30.66 -93 31 C-93 31.66 -93 32.32 -93 33 C-95.97 33.495 -95.97 33.495 -99 34 C-99 34.66 -99 35.32 -99 36 C-101 37 -103 38 -105 39 C-105 39.66 -105 40.32 -105 41 C-105.59554687 41.0928125 -106.19109375 41.185625 -106.8046875 41.28125 C-109.50876569 42.16657097 -110.38690187 43.27960238 -112.125 45.5 C-114.82372881 48.91186441 -114.82372881 48.91186441 -117 50 C-117 50.66 -117 51.32 -117 52 C-117.66 52 -118.32 52 -119 52 C-119.495 54.475 -119.495 54.475 -120 57 C-125.94 57.495 -125.94 57.495 -132 58 C-132 58.33 -132 58.66 -132 59 C-130.82630859 59.09087891 -130.82630859 59.09087891 -129.62890625 59.18359375 C-128.61699219 59.26738281 -127.60507813 59.35117187 -126.5625 59.4375 C-125.55316406 59.51871094 -124.54382813 59.59992187 -123.50390625 59.68359375 C-121 60 -121 60 -120 61 C-117.67989879 61.09982869 -115.38951504 61.13442998 -113.06884766 61.12698364 C-112.33522035 61.12854363 -111.60159304 61.13010362 -110.8457346 61.13171089 C-108.36849059 61.13572388 -105.89130705 61.13252999 -103.4140625 61.12939453 C-101.64528874 61.13074853 -99.87651525 61.13252846 -98.10774231 61.13470459 C-93.28709605 61.13928171 -88.46647109 61.13748753 -83.64582443 61.1343255 C-78.60380749 61.13180017 -73.56179241 61.13414022 -68.51977539 61.13571167 C-60.04231437 61.13753419 -51.56486204 61.13512629 -43.08740234 61.13037109 C-33.29629567 61.12494233 -23.50520986 61.12668069 -13.7141037 61.1321975 C-5.30976432 61.13674304 3.09456879 61.1373717 11.498909 61.13475883 C16.51878704 61.13320218 21.5386553 61.13298524 26.55853271 61.13629532 C31.28625266 61.13919444 36.0139459 61.13716091 40.74166298 61.13140106 C42.47299467 61.13008379 44.20432863 61.13044996 45.93565941 61.13266373 C57.99960644 61.15098902 57.99960644 61.15098902 70 60 C69.34 59.01 68.68 58.02 68 57 C67.34 57 66.68 57 66 57 C65.71125 56.236875 65.4225 55.47375 65.125 54.6875 C64.03730987 51.84970692 64.03730987 51.84970692 62 49 C61.34 49 60.68 49 60 49 C59.5978125 48.0409375 59.5978125 48.0409375 59.1875 47.0625 C58.11332248 44.66868314 58.11332248 44.66868314 55 44 C54.67 43.01 54.34 42.02 54 41 C53.34 41 52.68 41 52 41 C52 40.34 52 39.68 52 39 C50.05385473 37.40651139 50.05385473 37.40651139 47.625 35.875 C46.81289063 35.33617188 46.00078125 34.79734375 45.1640625 34.2421875 C43.12677974 32.8340587 43.12677974 32.8340587 41 33 C41 32.34 41 31.68 41 31 C37.27034861 28.96564469 35.33094958 28 31 28 C31 27.34 31 26.68 31 26 C29.02 25.67 27.04 25.34 25 25 C25 24.34 25 23.68 25 23 C15.52483672 19.68369285 6.01792866 16.96326237 -4 16 C-4 15.67 -4 15.34 -4 15 C-28.79701983 11.52318734 -28.79701983 11.52318734 -51 16 Z " fill="#108367" transform="translate(215,1)"/>
<path d="M0 0 C0 0.33 0 0.66 0 1 C-2.64 1 -5.28 1 -8 1 C-8 0.67 -8 0.34 -8 0 C-22.57999961 -1.35178804 -38.49594812 -2.54843428 -53 0 C-53.33 0.33 -53.66 0.66 -54 1 C-55.9748281 1.30084108 -57.95527882 1.56501147 -59.9375 1.8125 C-66.14552847 2.72743869 -71.3045779 4.45132161 -77 7 C-78.78823242 7.73754883 -80.57989573 8.4668377 -82.375 9.1875 C-83.16648438 9.51105469 -83.95796875 9.83460937 -84.7734375 10.16796875 C-86.83582425 10.93865012 -88.85459354 11.51507936 -91 12 C-72.26096135 -8.47413482 -24.09907183 -8.59906911 0 0 Z " fill="#030303" transform="translate(218,17)"/>
<path d="M0 0 C2.475 0.495 2.475 0.495 5 1 C4.6875 2.9375 4.6875 2.9375 4 5 C3.01 5.33 2.02 5.66 1 6 C0 1.125 0 1.125 0 0 Z " fill="#000000" transform="translate(77,197)"/>
<path d="M0 0 C0.33 0 0.66 0 1 0 C1 1.65 1 3.3 1 5 C-0.32 4.67 -1.64 4.34 -3 4 C-2.34 3.67 -1.68 3.34 -1 3 C-0.67 2.01 -0.34 1.02 0 0 Z " fill="#000000" transform="translate(100,54)"/>
<path d="" fill="#100D0D" transform="translate(0,0)"/>
<path d="" fill="#000000" transform="translate(0,0)"/>
<path d="" fill="#000000" transform="translate(0,0)"/>
<path d="" fill="#000000" transform="translate(0,0)"/>
<path d="M0 0 C2 1 2 1 2 1 Z " fill="#000000" transform="translate(75,196)"/>
<path d="M0 0 C2 1 2 1 2 1 Z " fill="#000000" transform="translate(323,142)"/>
<path d="M0 0 C2 1 2 1 2 1 Z " fill="#000000" transform="translate(320,142)"/>
<path d="M0 0 C2 1 2 1 2 1 Z " fill="#000000" transform="translate(61,84)"/>
<path d="" fill="#000000" transform="translate(0,0)"/>
<path d="" fill="#000000" transform="translate(0,0)"/>
<path d="" fill="#000000" transform="translate(0,0)"/>
<path d="" fill="#000000" transform="translate(0,0)"/>
<path d="" fill="#000000" transform="translate(0,0)"/>
<path d="" fill="#000000" transform="translate(0,0)"/>
<path d="" fill="#000000" transform="translate(0,0)"/>
<path d="" fill="#000000" transform="translate(0,0)"/>
<path d="" fill="#000000" transform="translate(0,0)"/>
<path d="" fill="#000000" transform="translate(0,0)"/>
<path d="" fill="#000000" transform="translate(0,0)"/>
<path d="" fill="#000000" transform="translate(0,0)"/>
<path d="" fill="#000000" transform="translate(0,0)"/>
<path d="" fill="#000000" transform="translate(0,0)"/>
<path d="" fill="#000000" transform="translate(0,0)"/>
<path d="" fill="#000000" transform="translate(0,0)"/>
<path d="" fill="#000000" transform="translate(0,0)"/>
<path d="" fill="#000000" transform="translate(0,0)"/>
<path d="" fill="#000000" transform="translate(0,0)"/>
<path d="" fill="#000000" transform="translate(0,0)"/>
<path d="" fill="#000000" transform="translate(0,0)"/>
<path d="" fill="#000000" transform="translate(0,0)"/>
<path d="" fill="#000000" transform="translate(0,0)"/>
<path d="" fill="#000000" transform="translate(0,0)"/>
<path d="" fill="#000000" transform="translate(0,0)"/>
<path d="" fill="#050505" transform="translate(0,0)"/>
<path d="" fill="#000000" transform="translate(0,0)"/>
<path d="" fill="#000000" transform="translate(0,0)"/>
<path d="" fill="#000000" transform="translate(0,0)"/>
<path d="" fill="#000000" transform="translate(0,0)"/>
<path d="" fill="#040101" transform="translate(0,0)"/>
<path d="" fill="#000000" transform="translate(0,0)"/>
<path d="" fill="#000000" transform="translate(0,0)"/>
<path d="" fill="#000000" transform="translate(0,0)"/>
<path d="" fill="#000000" transform="translate(0,0)"/>
<path d="" fill="#000000" transform="translate(0,0)"/>
<path d="" fill="#000000" transform="translate(0,0)"/>
<path d="" fill="#000000" transform="translate(0,0)"/>
<path d="" fill="#000000" transform="translate(0,0)"/>
<path d="" fill="#000000" transform="translate(0,0)"/>
<path d="" fill="#000000" transform="translate(0,0)"/>
<path d="" fill="#000000" transform="translate(0,0)"/>
<path d="" fill="#000000" transform="translate(0,0)"/>
<path d="" fill="#000000" transform="translate(0,0)"/>
<path d="" fill="#000000" transform="translate(0,0)"/>
<path d="" fill="#000000" transform="translate(0,0)"/>
<path d="" fill="#000000" transform="translate(0,0)"/>
<path d="" fill="#000000" transform="translate(0,0)"/>
<path d="" fill="#000000" transform="translate(0,0)"/>
<path d="" fill="#000000" transform="translate(0,0)"/>
<path d="" fill="#000000" transform="translate(0,0)"/>
<path d="" fill="#000000" transform="translate(0,0)"/>
<path d="" fill="#000000" transform="translate(0,0)"/>
</svg>
