<svg width="1377" height="303" viewBox="0 0 1377 303" fill="none" xmlns="http://www.w3.org/2000/svg">
<path d="M174.104 84.4472C174.104 94.6062 165.859 102.842 155.689 102.842C145.519 102.842 137.274 94.6062 137.274 84.4472C137.274 74.2883 145.519 66.0528 155.689 66.0528C165.859 66.0528 174.104 74.2883 174.104 84.4472Z" fill="#1671D0"/>
<path d="M105.467 18.3944C105.467 28.5534 97.2221 36.7889 87.0518 36.7889C76.8816 36.7889 68.637 28.5534 68.637 18.3944C68.637 8.23547 76.8816 0 87.0518 0C97.2221 0 105.467 8.23547 105.467 18.3944Z" fill="#1671D0"/>
<path d="M174.104 18.3944C174.104 28.5534 165.859 36.7889 155.689 36.7889C145.519 36.7889 137.274 28.5534 137.274 18.3944C137.274 8.23547 145.519 0 155.689 0C165.859 0 174.104 8.23547 174.104 18.3944Z" fill="#1671D0"/>
<path d="M105.467 150.5C105.467 160.659 97.2221 168.894 87.0518 168.894C76.8816 168.894 68.637 160.659 68.637 150.5C68.637 140.341 76.8816 132.106 87.0518 132.106C97.2221 132.106 105.467 140.341 105.467 150.5Z" fill="#1671D0"/>
<path d="M36.8296 150.5C36.8296 160.659 28.585 168.894 18.4148 168.894C8.24459 168.894 0 160.659 0 150.5C0 140.341 8.24459 132.106 18.4148 132.106C28.585 132.106 36.8296 140.341 36.8296 150.5Z" fill="#1671D0"/>
<path d="M174.104 150.5C174.104 160.659 165.859 168.894 155.689 168.894C145.519 168.894 137.274 160.659 137.274 150.5C137.274 140.341 145.519 132.106 155.689 132.106C165.859 132.106 174.104 140.341 174.104 150.5Z" fill="#1671D0"/>
<path d="M105.467 282.606C105.467 292.765 97.2221 301 87.0518 301C76.8816 301 68.637 292.765 68.637 282.606C68.637 272.447 76.8816 264.211 87.0518 264.211C97.2221 264.211 105.467 272.447 105.467 282.606Z" fill="#1671D0"/>
<path d="M174.104 216.553C174.104 226.712 165.859 234.947 155.689 234.947C145.519 234.947 137.274 226.712 137.274 216.553C137.274 206.394 145.519 198.158 155.689 198.158C165.859 198.158 174.104 206.394 174.104 216.553Z" fill="#1671D0"/>
<path d="M174.104 282.606C174.104 292.765 165.859 301 155.689 301C145.519 301 137.274 292.765 137.274 282.606C137.274 272.447 145.519 264.211 155.689 264.211C165.859 264.211 174.104 272.447 174.104 282.606Z" fill="#1671D0"/>
<path d="M202.563 156.353C202.563 142.961 213.431 132.106 226.837 132.106H314.726C328.132 132.106 339 142.961 339 156.353C339 169.744 328.132 180.6 314.726 180.6H226.837C213.431 180.6 202.563 169.744 202.563 156.353Z" fill="#1671D0"/>
<path d="M200.921 67.2419C209.339 56.4796 224.897 54.5714 235.671 62.9798L327.65 134.763C338.425 143.171 340.335 158.712 331.917 169.474C323.499 180.237 307.941 182.145 297.167 173.736L205.188 101.954C194.413 93.5452 192.503 78.0042 200.921 67.2419Z" fill="#1671D0"/>
<path d="M333.591 140.723C325.173 129.961 309.615 128.053 298.841 136.461L206.863 208.243C196.088 216.651 194.178 232.192 202.596 242.955C211.014 253.717 226.572 255.625 237.346 247.217L329.324 175.435C340.099 167.026 342.009 151.485 333.591 140.723Z" fill="#1671D0"/>
<path d="M487.659 124.75C487.023 118.795 484.341 114.159 479.614 110.841C474.932 107.523 468.841 105.864 461.341 105.864C456.068 105.864 451.545 106.659 447.773 108.25C444 109.841 441.114 112 439.114 114.727C437.114 117.455 436.091 120.568 436.045 124.068C436.045 126.977 436.705 129.5 438.023 131.636C439.386 133.773 441.227 135.591 443.545 137.091C445.864 138.545 448.432 139.773 451.25 140.773C454.068 141.773 456.909 142.614 459.773 143.295L472.864 146.568C478.136 147.795 483.205 149.455 488.068 151.545C492.977 153.636 497.364 156.273 501.227 159.455C505.136 162.636 508.227 166.477 510.5 170.977C512.773 175.477 513.909 180.75 513.909 186.795C513.909 194.977 511.818 202.182 507.636 208.409C503.455 214.591 497.409 219.432 489.5 222.932C481.636 226.386 472.114 228.114 460.932 228.114C450.068 228.114 440.636 226.432 432.636 223.068C424.682 219.705 418.455 214.795 413.955 208.341C409.5 201.886 407.091 194.023 406.727 184.75H431.614C431.977 189.614 433.477 193.659 436.114 196.886C438.75 200.114 442.182 202.523 446.409 204.114C450.682 205.705 455.455 206.5 460.727 206.5C466.227 206.5 471.045 205.682 475.182 204.045C479.364 202.364 482.636 200.045 485 197.091C487.364 194.091 488.568 190.591 488.614 186.591C488.568 182.955 487.5 179.955 485.409 177.591C483.318 175.182 480.386 173.182 476.614 171.591C472.886 169.955 468.523 168.5 463.523 167.227L447.636 163.136C436.136 160.182 427.045 155.705 420.364 149.705C413.727 143.659 410.409 135.636 410.409 125.636C410.409 117.409 412.636 110.205 417.091 104.023C421.591 97.8409 427.705 93.0455 435.432 89.6364C443.159 86.1818 451.909 84.4545 461.682 84.4545C471.591 84.4545 480.273 86.1818 487.727 89.6364C495.227 93.0455 501.114 97.7955 505.386 103.886C509.659 109.932 511.864 116.886 512 124.75H487.659ZM560.051 164.636V226H535.369V86.3636H559.506V139.068H560.733C563.188 133.159 566.983 128.5 572.119 125.091C577.301 121.636 583.892 119.909 591.892 119.909C599.165 119.909 605.506 121.432 610.915 124.477C616.324 127.523 620.506 131.977 623.46 137.841C626.46 143.705 627.96 150.864 627.96 159.318V226H603.278V163.136C603.278 156.091 601.46 150.614 597.824 146.705C594.233 142.75 589.188 140.773 582.688 140.773C578.324 140.773 574.415 141.727 570.96 143.636C567.551 145.5 564.869 148.205 562.915 151.75C561.006 155.295 560.051 159.591 560.051 164.636ZM653.119 226V121.273H677.801V226H653.119ZM665.528 106.409C661.619 106.409 658.256 105.114 655.438 102.523C652.619 99.8864 651.21 96.7273 651.21 93.0454C651.21 89.3182 652.619 86.1591 655.438 83.5682C658.256 80.9318 661.619 79.6136 665.528 79.6136C669.483 79.6136 672.847 80.9318 675.619 83.5682C678.438 86.1591 679.847 89.3182 679.847 93.0454C679.847 96.7273 678.438 99.8864 675.619 102.523C672.847 105.114 669.483 106.409 665.528 106.409ZM703.182 265.273V121.273H727.455V138.591H728.886C730.159 136.045 731.955 133.341 734.273 130.477C736.591 127.568 739.727 125.091 743.682 123.045C747.636 120.955 752.682 119.909 758.818 119.909C766.909 119.909 774.205 121.977 780.705 126.114C787.25 130.205 792.432 136.273 796.25 144.318C800.114 152.318 802.045 162.136 802.045 173.773C802.045 185.273 800.159 195.045 796.386 203.091C792.614 211.136 787.477 217.273 780.977 221.5C774.477 225.727 767.114 227.841 758.886 227.841C752.886 227.841 747.909 226.841 743.955 224.841C740 222.841 736.818 220.432 734.409 217.614C732.045 214.75 730.205 212.045 728.886 209.5H727.864V265.273H703.182ZM727.386 173.636C727.386 180.409 728.341 186.341 730.25 191.432C732.205 196.523 735 200.5 738.636 203.364C742.318 206.182 746.773 207.591 752 207.591C757.455 207.591 762.023 206.136 765.705 203.227C769.386 200.273 772.159 196.25 774.023 191.159C775.932 186.023 776.886 180.182 776.886 173.636C776.886 167.136 775.955 161.364 774.091 156.318C772.227 151.273 769.455 147.318 765.773 144.455C762.091 141.591 757.5 140.159 752 140.159C746.727 140.159 742.25 141.545 738.568 144.318C734.886 147.091 732.091 150.977 730.182 155.977C728.318 160.977 727.386 166.864 727.386 173.636ZM900.159 124.75C899.523 118.795 896.841 114.159 892.114 110.841C887.432 107.523 881.341 105.864 873.841 105.864C868.568 105.864 864.045 106.659 860.273 108.25C856.5 109.841 853.614 112 851.614 114.727C849.614 117.455 848.591 120.568 848.545 124.068C848.545 126.977 849.205 129.5 850.523 131.636C851.886 133.773 853.727 135.591 856.045 137.091C858.364 138.545 860.932 139.773 863.75 140.773C866.568 141.773 869.409 142.614 872.273 143.295L885.364 146.568C890.636 147.795 895.705 149.455 900.568 151.545C905.477 153.636 909.864 156.273 913.727 159.455C917.636 162.636 920.727 166.477 923 170.977C925.273 175.477 926.409 180.75 926.409 186.795C926.409 194.977 924.318 202.182 920.136 208.409C915.955 214.591 909.909 219.432 902 222.932C894.136 226.386 884.614 228.114 873.432 228.114C862.568 228.114 853.136 226.432 845.136 223.068C837.182 219.705 830.955 214.795 826.455 208.341C822 201.886 819.591 194.023 819.227 184.75H844.114C844.477 189.614 845.977 193.659 848.614 196.886C851.25 200.114 854.682 202.523 858.909 204.114C863.182 205.705 867.955 206.5 873.227 206.5C878.727 206.5 883.545 205.682 887.682 204.045C891.864 202.364 895.136 200.045 897.5 197.091C899.864 194.091 901.068 190.591 901.114 186.591C901.068 182.955 900 179.955 897.909 177.591C895.818 175.182 892.886 173.182 889.114 171.591C885.386 169.955 881.023 168.5 876.023 167.227L860.136 163.136C848.636 160.182 839.545 155.705 832.864 149.705C826.227 143.659 822.909 135.636 822.909 125.636C822.909 117.409 825.136 110.205 829.591 104.023C834.091 97.8409 840.205 93.0455 847.932 89.6364C855.659 86.1818 864.409 84.4545 874.182 84.4545C884.091 84.4545 892.773 86.1818 900.227 89.6364C907.727 93.0455 913.614 97.7955 917.886 103.886C922.159 109.932 924.364 116.886 924.5 124.75H900.159ZM994.233 228.045C983.733 228.045 974.665 225.864 967.028 221.5C959.438 217.091 953.597 210.864 949.506 202.818C945.415 194.727 943.369 185.205 943.369 174.25C943.369 163.477 945.415 154.023 949.506 145.886C953.642 137.705 959.415 131.341 966.824 126.795C974.233 122.205 982.938 119.909 992.938 119.909C999.392 119.909 1005.48 120.955 1011.21 123.045C1016.98 125.091 1022.07 128.273 1026.48 132.591C1030.94 136.909 1034.44 142.409 1036.98 149.091C1039.53 155.727 1040.8 163.636 1040.8 172.818V180.386H954.96V163.75H1017.14C1017.1 159.023 1016.07 154.818 1014.07 151.136C1012.07 147.409 1009.28 144.477 1005.69 142.341C1002.14 140.205 998.006 139.136 993.278 139.136C988.233 139.136 983.801 140.364 979.983 142.818C976.165 145.227 973.188 148.409 971.051 152.364C968.96 156.273 967.892 160.568 967.847 165.25V179.773C967.847 185.864 968.96 191.091 971.188 195.455C973.415 199.773 976.528 203.091 980.528 205.409C984.528 207.682 989.21 208.818 994.574 208.818C998.165 208.818 1001.41 208.318 1004.32 207.318C1007.23 206.273 1009.76 204.75 1011.89 202.75C1014.03 200.75 1015.64 198.273 1016.73 195.318L1039.78 197.909C1038.32 204 1035.55 209.318 1031.46 213.864C1027.41 218.364 1022.23 221.864 1015.91 224.364C1009.6 226.818 1002.37 228.045 994.233 228.045ZM1107.36 228.045C1096.91 228.045 1087.93 225.75 1080.43 221.159C1072.98 216.568 1067.23 210.227 1063.18 202.136C1059.18 194 1057.18 184.636 1057.18 174.045C1057.18 163.409 1059.23 154.023 1063.32 145.886C1067.41 137.705 1073.18 131.341 1080.64 126.795C1088.14 122.205 1097 119.909 1107.23 119.909C1115.73 119.909 1123.25 121.477 1129.8 124.614C1136.39 127.705 1141.64 132.091 1145.55 137.773C1149.45 143.409 1151.68 150 1152.23 157.545H1128.64C1127.68 152.5 1125.41 148.295 1121.82 144.932C1118.27 141.523 1113.52 139.818 1107.57 139.818C1102.52 139.818 1098.09 141.182 1094.27 143.909C1090.45 146.591 1087.48 150.455 1085.34 155.5C1083.25 160.545 1082.2 166.591 1082.2 173.636C1082.2 180.773 1083.25 186.909 1085.34 192.045C1087.43 197.136 1090.36 201.068 1094.14 203.841C1097.95 206.568 1102.43 207.932 1107.57 207.932C1111.2 207.932 1114.45 207.25 1117.32 205.886C1120.23 204.477 1122.66 202.455 1124.61 199.818C1126.57 197.182 1127.91 193.977 1128.64 190.205H1152.23C1151.64 197.614 1149.45 204.182 1145.68 209.909C1141.91 215.591 1136.77 220.045 1130.27 223.273C1123.77 226.455 1116.14 228.045 1107.36 228.045ZM1187.7 227.5C1183.56 227.5 1180.02 226.045 1177.06 223.136C1174.11 220.227 1172.65 216.682 1172.7 212.5C1172.65 208.409 1174.11 204.909 1177.06 202C1180.02 199.091 1183.56 197.636 1187.7 197.636C1191.7 197.636 1195.18 199.091 1198.13 202C1201.13 204.909 1202.65 208.409 1202.7 212.5C1202.65 215.273 1201.93 217.795 1200.52 220.068C1199.15 222.341 1197.34 224.159 1195.06 225.523C1192.84 226.841 1190.38 227.5 1187.7 227.5ZM1258.32 228.114C1251.68 228.114 1245.7 226.932 1240.39 224.568C1235.11 222.159 1230.93 218.614 1227.84 213.932C1224.8 209.25 1223.27 203.477 1223.27 196.614C1223.27 190.705 1224.36 185.818 1226.55 181.955C1228.73 178.091 1231.7 175 1235.48 172.682C1239.25 170.364 1243.5 168.614 1248.23 167.432C1253 166.205 1257.93 165.318 1263.02 164.773C1269.16 164.136 1274.14 163.568 1277.95 163.068C1281.77 162.523 1284.55 161.705 1286.27 160.614C1288.05 159.477 1288.93 157.727 1288.93 155.364V154.955C1288.93 149.818 1287.41 145.841 1284.36 143.023C1281.32 140.205 1276.93 138.795 1271.2 138.795C1265.16 138.795 1260.36 140.114 1256.82 142.75C1253.32 145.386 1250.95 148.5 1249.73 152.091L1226.68 148.818C1228.5 142.455 1231.5 137.136 1235.68 132.864C1239.86 128.545 1244.98 125.318 1251.02 123.182C1257.07 121 1263.75 119.909 1271.07 119.909C1276.11 119.909 1281.14 120.5 1286.14 121.682C1291.14 122.864 1295.7 124.818 1299.84 127.545C1303.98 130.227 1307.3 133.886 1309.8 138.523C1312.34 143.159 1313.61 148.955 1313.61 155.909V226H1289.89V211.614H1289.07C1287.57 214.523 1285.45 217.25 1282.73 219.795C1280.05 222.295 1276.66 224.318 1272.57 225.864C1268.52 227.364 1263.77 228.114 1258.32 228.114ZM1264.73 209.977C1269.68 209.977 1273.98 209 1277.61 207.045C1281.25 205.045 1284.05 202.409 1286 199.136C1288 195.864 1289 192.295 1289 188.432V176.091C1288.23 176.727 1286.91 177.318 1285.05 177.864C1283.23 178.409 1281.18 178.886 1278.91 179.295C1276.64 179.705 1274.39 180.068 1272.16 180.386C1269.93 180.705 1268 180.977 1266.36 181.205C1262.68 181.705 1259.39 182.523 1256.48 183.659C1253.57 184.795 1251.27 186.386 1249.59 188.432C1247.91 190.432 1247.07 193.023 1247.07 196.205C1247.07 200.75 1248.73 204.182 1252.05 206.5C1255.36 208.818 1259.59 209.977 1264.73 209.977ZM1338.43 226V121.273H1363.11V226H1338.43ZM1350.84 106.409C1346.93 106.409 1343.57 105.114 1340.75 102.523C1337.93 99.8864 1336.52 96.7273 1336.52 93.0454C1336.52 89.3182 1337.93 86.1591 1340.75 83.5682C1343.57 80.9318 1346.93 79.6136 1350.84 79.6136C1354.8 79.6136 1358.16 80.9318 1360.93 83.5682C1363.75 86.1591 1365.16 89.3182 1365.16 93.0454C1365.16 96.7273 1363.75 99.8864 1360.93 102.523C1358.16 105.114 1354.8 106.409 1350.84 106.409Z" fill="#FEFEFE"/>
</svg>
